<?xml version="1.0" encoding="utf-8"?>
<!-- Generator: Adobe Illustrator 26.1.0, SVG Export Plug-In . SVG Version: 6.00 Build 0)  -->
<svg version="1.1" id="Capa_1" xmlns="http://www.w3.org/2000/svg" xmlns:xlink="http://www.w3.org/1999/xlink" x="0px" y="0px"
	 viewBox="0 0 205.7 76.68" style="enable-background:new 0 0 205.7 76.68;" xml:space="preserve">
<g>
	<path d="M65.77,29.73v-0.4l1.98-0.99l0.52-13.56l-2.13-0.99v-0.4h4.92l5.54,12.79l5.52-12.79h4.72v0.4l-2.1,0.92l0.42,13.63
		l1.78,0.99v0.4h-6.11v-0.4l1.86-0.96l-0.25-12.1L76.6,29.85h-1.19l-5.79-13.43L69.3,28.37l2.05,0.96v0.4H65.77z"/>
	<path d="M93.84,29.97c-0.97,0-1.77-0.25-2.39-0.74c-0.62-0.49-0.93-1.22-0.93-2.18v-7.32l-1.58-0.77v-0.4h3.91v7.35
		c0,0.69,0.21,1.22,0.63,1.58c0.42,0.36,0.97,0.54,1.65,0.54c0.41,0,0.87-0.07,1.36-0.21c0.49-0.14,0.89-0.35,1.19-0.63v-7.47
		l-1.68-0.77v-0.4h4.03v10.04l1.71,0.72v0.4h-4.06v-1.56h-0.12c-0.61,0.61-1.2,1.06-1.78,1.36S94.55,29.97,93.84,29.97z"/>
	<path d="M107.62,29.97c-0.79,0-1.47-0.07-2.04-0.21c-0.57-0.14-1.14-0.36-1.72-0.66v-2.77h0.37l0.79,1.34
		c0.54,0.91,1.39,1.36,2.52,1.36c0.66,0,1.17-0.15,1.52-0.45c0.35-0.3,0.53-0.71,0.53-1.24c0-0.43-0.11-0.77-0.33-1.04
		c-0.22-0.26-0.54-0.49-0.96-0.69c-0.42-0.2-0.93-0.44-1.52-0.72c-0.86-0.38-1.51-0.8-1.97-1.26c-0.45-0.46-0.68-1.1-0.68-1.9
		c0-0.64,0.18-1.22,0.53-1.73c0.35-0.51,0.81-0.92,1.37-1.22c0.56-0.3,1.15-0.46,1.78-0.46c0.59,0,1.15,0.07,1.68,0.21
		c0.53,0.14,1.05,0.34,1.56,0.61v2.75h-0.35l-0.82-1.29c-0.54-0.86-1.21-1.29-2-1.29c-0.54,0-0.98,0.14-1.31,0.41
		c-0.33,0.27-0.5,0.65-0.5,1.13c0,0.53,0.19,0.94,0.58,1.22c0.39,0.29,0.99,0.61,1.82,0.98c0.48,0.21,0.95,0.44,1.41,0.68
		c0.46,0.24,0.84,0.57,1.15,0.99c0.3,0.42,0.46,1.02,0.46,1.79c0,0.76-0.2,1.39-0.61,1.9c-0.4,0.51-0.9,0.9-1.5,1.16
		C108.81,29.84,108.21,29.97,107.62,29.97z"/>
	<path d="M119.49,29.97c-1.62,0-2.89-0.49-3.83-1.46c-0.94-0.97-1.41-2.27-1.41-3.88c0-1.22,0.25-2.31,0.75-3.27
		c0.5-0.96,1.17-1.7,2-2.24c0.83-0.54,1.74-0.8,2.71-0.8c1.32,0,2.35,0.45,3.09,1.35c0.74,0.9,1.12,2.19,1.14,3.87l-0.12,0.12h-7.3
		c0.02,0.76,0.16,1.46,0.43,2.1c0.27,0.64,0.71,1.16,1.31,1.56c0.6,0.4,1.41,0.59,2.44,0.59c0.94,0,2-0.31,3.19-0.94h0.07v0.3
		c-0.4,0.76-0.98,1.4-1.76,1.92C121.44,29.71,120.53,29.97,119.49,29.97z M119.27,19.41c-0.73,0-1.32,0.27-1.79,0.82
		c-0.47,0.54-0.77,1.31-0.9,2.3h5.27c-0.17-1.12-0.46-1.92-0.89-2.4C120.52,19.65,119.96,19.41,119.27,19.41z"/>
	<path d="M131.91,29.97c-1.1,0-2.07-0.26-2.91-0.78s-1.48-1.22-1.95-2.1c-0.47-0.88-0.71-1.87-0.71-2.96s0.24-2.07,0.71-2.96
		c0.47-0.88,1.12-1.58,1.95-2.09s1.8-0.77,2.91-0.77s2.07,0.26,2.89,0.77c0.82,0.51,1.47,1.21,1.94,2.09
		c0.47,0.88,0.71,1.87,0.71,2.96s-0.24,2.07-0.71,2.96c-0.47,0.88-1.12,1.58-1.94,2.1C133.98,29.71,133.01,29.97,131.91,29.97z
		 M132.23,28.89c0.63,0,1.14-0.21,1.53-0.62c0.4-0.41,0.68-0.94,0.87-1.58c0.18-0.64,0.27-1.33,0.27-2.05
		c0-0.87-0.11-1.71-0.33-2.51c-0.22-0.8-0.57-1.46-1.05-1.97c-0.48-0.51-1.11-0.77-1.88-0.77c-0.63,0-1.15,0.2-1.56,0.61
		c-0.41,0.4-0.71,0.93-0.9,1.57c-0.19,0.64-0.28,1.33-0.28,2.05c0,0.87,0.12,1.72,0.35,2.52c0.23,0.81,0.59,1.47,1.09,1.98
		C130.82,28.63,131.46,28.89,132.23,28.89z"/>
</g>
<g>
	<path d="M14.01,59.26v-0.52l2.96-1.33V39.68l-2.96-1.33v-0.52h18.65v5.62H32.1l-2.37-3.83h-7.49v7.79h5.02l1.95-2.79h0.56v7.11
		H29.2L27.25,49h-5.02v8.41l3.56,1.33v0.52H14.01z"/>
	<path d="M42.9,59.58c-2.39,0-4.28-0.64-5.66-1.93c-1.38-1.29-2.07-2.99-2.07-5.12c0-1.65,0.38-3.1,1.15-4.37
		c0.77-1.27,1.8-2.26,3.1-2.97c1.3-0.71,2.75-1.07,4.36-1.07c1.88,0,3.35,0.58,4.39,1.75c1.05,1.17,1.58,2.83,1.6,4.97l-0.14,0.16
		h-9.76v0.16c0,0.91,0.19,1.74,0.56,2.48c0.37,0.75,0.96,1.34,1.76,1.77c0.8,0.43,1.84,0.65,3.12,0.65c0.67,0,1.38-0.08,2.11-0.23
		c0.73-0.15,1.49-0.41,2.28-0.78h0.1v0.52c-0.58,1.15-1.47,2.1-2.67,2.86C45.94,59.21,44.53,59.58,42.9,59.58z M42.97,45.59
		c-0.81,0-1.48,0.35-2,1.04c-0.52,0.69-0.85,1.67-0.99,2.92h5.89c-0.16-1.49-0.49-2.53-0.99-3.1
		C44.37,45.87,43.74,45.59,42.97,45.59z"/>
	<path d="M52.28,59.26v-0.52l2.3-1.04v-9.68l-2.2-1.53v-0.39l6.34-1.98h0.42l0.31,2.92h0.17c0.56-0.82,1.06-1.45,1.5-1.87
		s0.86-0.7,1.25-0.84c0.4-0.14,0.82-0.21,1.29-0.21c0.19,0,0.4,0.03,0.64,0.08s0.46,0.11,0.65,0.18c0.7,0.2,1.05,0.5,1.05,0.91
		c0,0.19-0.05,0.38-0.14,0.55l-0.84,2.11h-0.24l-0.91-0.29c-0.6-0.19-1.22-0.29-1.85-0.29c-0.98,0-1.82,0.42-2.54,1.27v9.06
		l2.82,1.04v0.52H52.28z"/>
	<path d="M67.09,59.26v-0.52l2.3-1.04v-9.68l-2.2-1.53v-0.39l6.34-1.98h0.42l0.31,2.92h0.17c0.56-0.82,1.06-1.45,1.5-1.87
		s0.86-0.7,1.25-0.84c0.4-0.14,0.82-0.21,1.29-0.21c0.19,0,0.4,0.03,0.64,0.08s0.46,0.11,0.65,0.18c0.7,0.2,1.05,0.5,1.05,0.91
		c0,0.19-0.05,0.38-0.14,0.55l-0.84,2.11h-0.24l-0.91-0.29c-0.6-0.19-1.22-0.29-1.85-0.29c-0.98,0-1.82,0.42-2.54,1.27v9.06
		l2.82,1.04v0.52H67.09z"/>
	<path d="M90.31,59.58c-1.65,0-3.1-0.35-4.36-1.06c-1.25-0.7-2.23-1.64-2.93-2.81c-0.7-1.17-1.05-2.46-1.05-3.87
		c0-1.43,0.35-2.73,1.05-3.9c0.7-1.17,1.67-2.1,2.93-2.79c1.25-0.69,2.71-1.04,4.36-1.04c1.65,0,3.1,0.35,4.34,1.04
		c1.24,0.69,2.21,1.62,2.91,2.79c0.7,1.17,1.05,2.47,1.05,3.9c0,1.41-0.35,2.7-1.05,3.87c-0.7,1.17-1.67,2.11-2.91,2.81
		C93.4,59.23,91.96,59.58,90.31,59.58z M90.69,57.99c0.67,0,1.23-0.25,1.66-0.76c0.43-0.51,0.74-1.19,0.94-2.03
		c0.2-0.84,0.3-1.74,0.3-2.7c0-1.17-0.12-2.27-0.37-3.31c-0.24-1.04-0.63-1.88-1.15-2.53c-0.52-0.65-1.21-0.97-2.07-0.97
		c-0.7,0-1.27,0.25-1.71,0.76c-0.44,0.51-0.77,1.18-0.98,2.01C87.1,49.29,87,50.2,87,51.17c0,1.19,0.13,2.3,0.38,3.33
		c0.26,1.03,0.66,1.87,1.2,2.52C89.13,57.67,89.83,57.99,90.69,57.99z"/>
	<path d="M107.35,59.26l-6.62-13.41l-2.16-0.88v-0.52h9.86v0.52l-2.41,0.94v0.1l3.63,7.24h0.14l3.21-7.11v-0.13l-2.2-1.04v-0.52
		h6.87v0.52l-2.47,1.1l-6.52,13.19H107.35z"/>
	<path d="M117.77,59.26v-0.52l2.33-1.04v-9.87l-2.23-1.53v-0.39l6.73-1.79h0.42V57.7l2.06,1.04v0.52H117.77z M122.48,40.91
		c-0.74,0-1.35-0.22-1.83-0.67c-0.48-0.44-0.71-1-0.71-1.67c0-0.69,0.24-1.26,0.71-1.71c0.48-0.44,1.09-0.67,1.83-0.67
		c0.74,0,1.35,0.22,1.83,0.67c0.48,0.44,0.71,1.01,0.71,1.71c0,0.67-0.24,1.23-0.71,1.67S123.22,40.91,122.48,40.91z"/>
	<path d="M133.49,59.55c-1.14,0-2.12-0.32-2.93-0.96c-0.81-0.64-1.2-1.56-1.15-2.78c0-0.78,0.16-1.45,0.49-2
		c0.33-0.55,0.89-1.03,1.71-1.44s1.95-0.79,3.42-1.14l3.28-0.75v-2.01c0-0.82-0.27-1.48-0.8-1.98c-0.54-0.5-1.22-0.75-2.06-0.75
		c-0.74,0-1.28,0.15-1.6,0.45c-0.33,0.3-0.49,0.76-0.49,1.36v1.49l-0.14,0.13h-2.3c-0.35,0-0.59-0.08-0.73-0.23
		c-0.14-0.15-0.21-0.41-0.21-0.78c0-0.48,0.2-0.94,0.61-1.4c0.41-0.46,0.95-0.88,1.62-1.27c0.84-0.5,1.62-0.86,2.35-1.07
		c0.73-0.22,1.53-0.32,2.39-0.32c1.14,0,2.18,0.14,3.14,0.42c0.95,0.28,1.71,0.73,2.28,1.35c0.57,0.62,0.85,1.41,0.85,2.39v8.57
		c0.37,0.35,0.93,0.52,1.67,0.52h1.01l0.1,0.1v0.45c-0.26,0.41-0.69,0.79-1.31,1.14c-0.62,0.35-1.41,0.52-2.39,0.52
		c-0.98,0-1.77-0.19-2.39-0.57c-0.62-0.38-1.09-0.93-1.41-1.64h-0.21c-0.58,0.61-1.28,1.12-2.09,1.54
		C135.4,59.34,134.49,59.55,133.49,59.55z M134.02,54.91c0,0.69,0.2,1.21,0.61,1.54c0.41,0.34,0.97,0.5,1.69,0.5
		c0.63,0,1.29-0.13,1.99-0.39v-4.77c-1.16,0.24-2.05,0.5-2.67,0.78c-0.62,0.28-1.04,0.61-1.27,0.97
		C134.13,53.91,134.02,54.37,134.02,54.91z"/>
	<path d="M147.3,59.26v-0.52l2.3-1.04v-9.68l-2.2-1.53v-0.39l6.34-1.98h0.42l0.31,2.92h0.17c0.56-0.82,1.06-1.45,1.5-1.87
		s0.86-0.7,1.25-0.84c0.39-0.14,0.82-0.21,1.29-0.21c0.19,0,0.4,0.03,0.64,0.08s0.46,0.11,0.64,0.18c0.7,0.2,1.05,0.5,1.05,0.91
		c0,0.19-0.05,0.38-0.14,0.55l-0.84,2.11h-0.24l-0.91-0.29c-0.6-0.19-1.22-0.29-1.85-0.29c-0.98,0-1.82,0.42-2.54,1.27v9.06
		l2.82,1.04v0.52H147.3z"/>
	<path d="M162.11,59.26v-0.52l2.33-1.04v-9.87l-2.23-1.53v-0.39l6.73-1.79h0.42V57.7l2.06,1.04v0.52H162.11z M166.82,40.91
		c-0.74,0-1.35-0.22-1.83-0.67c-0.48-0.44-0.71-1-0.71-1.67c0-0.69,0.24-1.26,0.71-1.71c0.48-0.44,1.09-0.67,1.83-0.67
		c0.74,0,1.35,0.22,1.83,0.67c0.48,0.44,0.71,1.01,0.71,1.71c0,0.67-0.24,1.23-0.71,1.67S167.56,40.91,166.82,40.91z"/>
	<path d="M182.12,59.58c-1.65,0-3.1-0.35-4.36-1.06c-1.25-0.7-2.23-1.64-2.93-2.81c-0.7-1.17-1.05-2.46-1.05-3.87
		c0-1.43,0.35-2.73,1.05-3.9c0.7-1.17,1.67-2.1,2.93-2.79c1.25-0.69,2.71-1.04,4.36-1.04c1.65,0,3.1,0.35,4.34,1.04
		c1.24,0.69,2.21,1.62,2.91,2.79c0.7,1.17,1.05,2.47,1.05,3.9c0,1.41-0.35,2.7-1.05,3.87c-0.7,1.17-1.67,2.11-2.91,2.81
		C185.22,59.23,183.77,59.58,182.12,59.58z M182.5,57.99c0.67,0,1.23-0.25,1.66-0.76s0.74-1.19,0.94-2.03c0.2-0.84,0.3-1.74,0.3-2.7
		c0-1.17-0.12-2.27-0.37-3.31c-0.24-1.04-0.63-1.88-1.15-2.53c-0.52-0.65-1.21-0.97-2.07-0.97c-0.7,0-1.27,0.25-1.71,0.76
		c-0.44,0.51-0.77,1.18-0.98,2.01c-0.21,0.83-0.31,1.74-0.31,2.71c0,1.19,0.13,2.3,0.38,3.33c0.25,1.03,0.66,1.87,1.2,2.52
		C180.94,57.67,181.64,57.99,182.5,57.99z"/>
</g>
<path d="M59.36,21.55H14.15c-0.28,0-0.5-0.22-0.5-0.5s0.22-0.5,0.5-0.5h45.21c0.28,0,0.5,0.22,0.5,0.5S59.63,21.55,59.36,21.55z"/>
<path d="M190.77,21.67h-45.21c-0.28,0-0.5-0.22-0.5-0.5s0.22-0.5,0.5-0.5h45.21c0.28,0,0.5,0.22,0.5,0.5S191.05,21.67,190.77,21.67z
	"/>
</svg>
